<svg width="64" height="64" viewBox="0 0 64 64" fill="none" xmlns="http://www.w3.org/2000/svg">
<path d="M32 3C32 1.34315 30.6539 -0.0145818 29.0044 0.140523C25.8292 0.439069 22.7109 1.21114 19.7541 2.43585C15.8717 4.04401 12.3441 6.40111 9.37258 9.37258C6.40111 12.3441 4.04401 15.8717 2.43585 19.7541C0.827704 23.6365 -1.33576e-07 27.7977 0 32C1.33576e-07 36.2023 0.827705 40.3635 2.43586 44.2459C4.04401 48.1283 6.40111 51.6559 9.37258 54.6274C12.3441 57.5989 15.8717 59.956 19.7541 61.5641C22.7109 62.7889 25.8293 63.5609 29.0044 63.8595C30.6539 64.0146 32 62.6569 32 61L32 51.0443C32 49.3875 30.6454 48.0727 29.0174 47.7647C27.938 47.5605 26.8799 47.2455 25.8601 46.823C23.9135 46.0167 22.1448 44.8349 20.6549 43.3451C19.1651 41.8552 17.9833 40.0865 17.177 38.1399C16.3707 36.1933 15.9557 34.107 15.9557 32C15.9557 29.893 16.3707 27.8067 17.177 25.8601C17.9833 23.9135 19.1651 22.1448 20.6549 20.6549C22.1448 19.1651 23.9135 17.9833 25.8601 17.177C26.8799 16.7545 27.938 16.4395 29.0174 16.2353C30.6454 15.9273 32 14.6125 32 12.9557L32 3Z" fill="#FF3800"/>
<path d="M57.3992 18.0042C58.8503 17.2046 59.3898 15.3703 58.4578 14.0004C55.9043 10.2469 52.5806 7.07904 48.7088 4.70863C47.2957 3.84351 45.4895 4.47044 44.7604 5.95828L40.3798 14.8984C39.6508 16.3862 40.2887 18.1629 41.6151 19.1559C42.6333 19.9182 43.5575 20.7989 44.3678 21.7795C45.4232 23.0566 47.2285 23.6085 48.6797 22.8089L57.3992 18.0042Z" fill="#2A2A2C"/>
<path d="M45.1873 57.8282C45.9407 59.3038 47.757 59.901 49.1556 59.0127C52.9879 56.5789 56.259 53.3568 58.7505 49.5617C59.6597 48.1767 59.0901 46.3516 57.626 45.576L48.8287 40.9154C47.3646 40.1397 45.5686 40.7213 44.5343 42.0156C43.7402 43.0094 42.8307 43.9052 41.8251 44.6842C40.5153 45.6988 39.9067 47.4858 40.6601 48.9614L45.1873 57.8282Z" fill="#2A2A2C"/>
</svg>
